<svg width="22" height="22" viewBox="0 0 22 22" fill="none" xmlns="http://www.w3.org/2000/svg">
<path d="M11.0008 0C4.93026 0 0.000824197 4.92955 0.000824197 11.0007C0.00449109 12.9435 0.532377 14.8449 1.51046 16.5208L0.0194435 20.9938C-0.0761245 21.2805 0.19684 21.5534 0.483504 21.4579L4.76176 20.032C6.59544 21.3014 8.76635 21.9967 11.0001 22C17.071 21.9999 22.0001 17.0708 22.0001 11C22.0001 4.92911 17.0714 0.000139276 11.0008 0ZM7.32485 9.9C7.928 9.9 8.42485 10.3969 8.42485 11C8.42484 11.6033 7.92799 12.1 7.32485 12.1C6.7217 12.1 6.22557 11.6033 6.22556 11C6.22556 10.3969 6.7217 9.9 7.32485 9.9ZM11.0008 9.9C11.604 9.9 12.1008 10.3969 12.1008 11C12.1008 11.6033 11.604 12.1 11.0008 12.1C10.3977 12.1 9.90083 11.6033 9.90082 11C9.90082 10.3969 10.3977 9.9 11.0008 9.9ZM14.6582 9.9C15.2613 9.9 15.7582 10.3969 15.7582 11C15.7582 11.6033 15.2613 12.1 14.6582 12.1C14.055 12.1 13.5582 11.6033 13.5582 11C13.5582 10.3969 14.055 9.9 14.6582 9.9Z" fill="url(#paint0_linear_4533_66920)"/>
<defs>
<linearGradient id="paint0_linear_4533_66920" x1="-1.63914e-07" y1="22" x2="24.4091" y2="18.8866" gradientUnits="userSpaceOnUse">
<stop stop-color="#92D050"/>
<stop offset="1" stop-color="#ED7D31"/>
</linearGradient>
</defs>
</svg>
