<svg width="20" height="21" viewBox="0 0 20 21" fill="none" xmlns="http://www.w3.org/2000/svg">
    <path d="M13.87 6.49107C13.87 6.39286 13.7896 6.3125 13.6914 6.3125L12.2182 6.3192L9.99944 8.96429L7.78292 6.32143L6.30748 6.31473C6.20926 6.31473 6.12891 6.39286 6.12891 6.4933C6.12891 6.53571 6.14453 6.57589 6.17132 6.60938L9.07533 10.0692L6.17132 13.5268C6.14434 13.5595 6.12938 13.6005 6.12891 13.6429C6.12891 13.7411 6.20926 13.8214 6.30748 13.8214L7.78292 13.8147L9.99944 11.1696L12.216 13.8125L13.6892 13.8192C13.7874 13.8192 13.8677 13.7411 13.8677 13.6406C13.8677 13.5982 13.8521 13.558 13.8253 13.5246L10.9258 10.067L13.8298 6.60714C13.8566 6.57589 13.87 6.53348 13.87 6.49107Z"
          fill="#5C5C5C"/>
    <path d="M10 0.0224609C4.47768 0.0224609 0 4.50014 0 10.0225C0 15.5448 4.47768 20.0225 10 20.0225C15.5223 20.0225 20 15.5448 20 10.0225C20 4.50014 15.5223 0.0224609 10 0.0224609ZM10 18.326C5.41518 18.326 1.69643 14.6073 1.69643 10.0225C1.69643 5.43764 5.41518 1.71889 10 1.71889C14.5848 1.71889 18.3036 5.43764 18.3036 10.0225C18.3036 14.6073 14.5848 18.326 10 18.326Z"
          fill="#5C5C5C"/>
</svg>
