<svg width="18" height="18" viewBox="0 0 18 18" fill="none" xmlns="http://www.w3.org/2000/svg">
<path d="M9 0.875C7.39303 0.875 5.82214 1.35152 4.486 2.24431C3.14985 3.1371 2.10844 4.40605 1.49348 5.8907C0.87852 7.37535 0.717618 9.00901 1.03112 10.5851C1.34463 12.1612 2.11846 13.6089 3.25476 14.7452C4.39106 15.8815 5.8388 16.6554 7.4149 16.9689C8.99099 17.2824 10.6247 17.1215 12.1093 16.5065C13.594 15.8916 14.8629 14.8502 15.7557 13.514C16.6485 12.1779 17.125 10.607 17.125 9C17.1227 6.84581 16.266 4.78051 14.7427 3.25727C13.2195 1.73403 11.1542 0.877275 9 0.875ZM9 15.875C7.64026 15.875 6.31105 15.4718 5.18046 14.7164C4.04987 13.9609 3.16868 12.8872 2.64833 11.6309C2.12798 10.3747 1.99183 8.99237 2.2571 7.65875C2.52238 6.32513 3.17716 5.10013 4.13864 4.13864C5.10013 3.17716 6.32514 2.52237 7.65876 2.2571C8.99238 1.99183 10.3747 2.12798 11.631 2.64833C12.8872 3.16868 13.9609 4.04987 14.7164 5.18045C15.4718 6.31104 15.875 7.64025 15.875 9C15.8729 10.8227 15.1479 12.5702 13.8591 13.8591C12.5702 15.1479 10.8227 15.8729 9 15.875ZM5.25 7.4375C5.25 7.25208 5.30499 7.07082 5.408 6.91665C5.51101 6.76248 5.65743 6.64232 5.82874 6.57136C6.00004 6.50041 6.18854 6.48184 6.3704 6.51801C6.55226 6.55419 6.7193 6.64348 6.85042 6.77459C6.98153 6.9057 7.07082 7.07275 7.10699 7.2546C7.14316 7.43646 7.1246 7.62496 7.05364 7.79627C6.98268 7.96757 6.86252 8.11399 6.70835 8.217C6.55418 8.32002 6.37292 8.375 6.1875 8.375C5.93886 8.375 5.70041 8.27623 5.52459 8.10041C5.34878 7.9246 5.25 7.68614 5.25 7.4375ZM12.75 7.4375C12.75 7.62292 12.695 7.80418 12.592 7.95835C12.489 8.11252 12.3426 8.23268 12.1713 8.30364C12 8.37459 11.8115 8.39316 11.6296 8.35699C11.4477 8.32081 11.2807 8.23152 11.1496 8.10041C11.0185 7.9693 10.9292 7.80225 10.893 7.6204C10.8568 7.43854 10.8754 7.25004 10.9464 7.07873C11.0173 6.90743 11.1375 6.76101 11.2917 6.658C11.4458 6.55498 11.6271 6.5 11.8125 6.5C12.0611 6.5 12.2996 6.59877 12.4754 6.77459C12.6512 6.9504 12.75 7.18886 12.75 7.4375ZM12.6664 11.1875C11.8625 12.5773 10.5258 13.375 9 13.375C7.47422 13.375 6.13829 12.5781 5.33438 11.1875C5.28916 11.1164 5.25879 11.0368 5.24511 10.9536C5.23143 10.8705 5.23472 10.7854 5.25477 10.7035C5.27483 10.6216 5.31123 10.5447 5.36181 10.4772C5.41238 10.4098 5.47607 10.3533 5.54905 10.3111C5.62203 10.2689 5.70278 10.2419 5.78646 10.2318C5.87014 10.2216 5.95501 10.2285 6.03596 10.252C6.11692 10.2754 6.19229 10.3151 6.25753 10.3684C6.32278 10.4218 6.37656 10.4878 6.41563 10.5625C6.99922 11.5711 7.91641 12.125 9 12.125C10.0836 12.125 11.0008 11.5703 11.5836 10.5625C11.6665 10.4189 11.803 10.3141 11.9631 10.2712C12.1233 10.2283 12.2939 10.2507 12.4375 10.3336C12.5811 10.4165 12.6859 10.553 12.7288 10.7131C12.7717 10.8733 12.7493 11.0439 12.6664 11.1875Z" fill="#5C5C5C"/>
</svg>
