<svg width="20" height="20" viewBox="0 0 20 20" fill="none" xmlns="http://www.w3.org/2000/svg">
<path d="M16.3794 9.55805C16.4375 9.6161 16.4836 9.68503 16.5151 9.7609C16.5465 9.83678 16.5627 9.91811 16.5627 10.0002C16.5627 10.0824 16.5465 10.1637 16.5151 10.2396C16.4836 10.3155 16.4375 10.3844 16.3794 10.4424L9.96925 16.8487C9.14863 17.6692 8.03568 18.1301 6.87522 18.13C5.71477 18.13 4.60187 17.6689 3.78136 16.8483C2.96085 16.0277 2.49993 14.9147 2.5 13.7543C2.50007 12.5938 2.96113 11.4809 3.78175 10.6604L11.5364 2.79165C12.1223 2.20517 12.9171 1.87544 13.7461 1.875C14.5751 1.87456 15.3703 2.20345 15.9568 2.78931C16.5432 3.37516 16.873 4.17001 16.8734 4.99898C16.8738 5.82795 16.545 6.62314 15.9591 7.20962L8.20284 15.0784C7.8506 15.4306 7.37286 15.6285 6.87472 15.6285C6.37657 15.6285 5.89883 15.4306 5.54659 15.0784C5.19435 14.7261 4.99647 14.2484 4.99647 13.7502C4.99647 13.2521 5.19435 12.7744 5.54659 12.4221L12.0544 5.81118C12.1114 5.75037 12.18 5.70157 12.2562 5.66766C12.3323 5.63376 12.4145 5.61543 12.4978 5.61375C12.5811 5.61207 12.664 5.62708 12.7414 5.6579C12.8189 5.68871 12.8894 5.73471 12.9488 5.79318C13.0082 5.85165 13.0553 5.92141 13.0874 5.99836C13.1194 6.07531 13.1357 6.1579 13.1354 6.24125C13.135 6.32461 13.118 6.40705 13.0853 6.48373C13.0526 6.56041 13.0049 6.62977 12.945 6.68774L6.43644 13.3057C6.37816 13.3635 6.33185 13.4322 6.30013 13.508C6.26842 13.5837 6.25193 13.6649 6.2516 13.747C6.25127 13.8291 6.26712 13.9104 6.29823 13.9864C6.32934 14.0623 6.37511 14.1314 6.43292 14.1897C6.49073 14.248 6.55946 14.2943 6.63517 14.326C6.71088 14.3577 6.7921 14.3742 6.87419 14.3745C6.95627 14.3749 7.03762 14.359 7.11358 14.3279C7.18954 14.2968 7.25863 14.251 7.31691 14.1932L15.0724 6.32837C15.4246 5.97685 15.6228 5.49981 15.6233 5.00218C15.6238 4.50455 15.4266 4.02709 15.0751 3.67485C14.7236 3.32261 14.2465 3.12444 13.7489 3.12392C13.2513 3.12341 12.7738 3.3206 12.4216 3.67212L4.66847 11.5377C4.37802 11.8277 4.14754 12.1721 3.99017 12.5511C3.8328 12.9302 3.75164 13.3365 3.75131 13.747C3.75099 14.1574 3.8315 14.5639 3.98827 14.9432C4.14503 15.3225 4.37497 15.6672 4.66495 15.9577C4.95494 16.2481 5.29929 16.4786 5.67835 16.636C6.05741 16.7933 6.46376 16.8745 6.87419 16.8748C7.28461 16.8751 7.69109 16.7946 8.0704 16.6379C8.44971 16.4811 8.79443 16.2512 9.08488 15.9612L15.4958 9.55493C15.6134 9.43822 15.7726 9.37299 15.9383 9.37358C16.1039 9.37416 16.2626 9.44052 16.3794 9.55805Z" fill="#5C5C5C"/>
</svg>
