<svg width="26" height="27" viewBox="0 0 26 27" fill="none" xmlns="http://www.w3.org/2000/svg">
<g clip-path="url(#clip0_1774_15857)">
<path d="M11.6592 0.603027C5.24796 0.603027 0.0253906 5.82559 0.0253906 12.2369C0.0253906 18.6481 5.24796 23.8809 11.6592 23.8809C14.3977 23.8809 16.9162 22.9212 18.9067 21.3278L23.7527 26.1712C23.9972 26.4056 24.3238 26.535 24.6626 26.5315C25.0013 26.528 25.3252 26.3921 25.5649 26.1527C25.8047 25.9133 25.9411 25.5897 25.945 25.2509C25.949 24.9122 25.8201 24.5854 25.586 24.3405L20.74 19.4946C22.3348 17.501 23.2956 14.9785 23.2956 12.2369C23.2956 5.82559 18.0705 0.603027 11.6592 0.603027ZM11.6592 3.18893C16.673 3.18893 20.7072 7.22312 20.7072 12.2369C20.7072 17.2507 16.673 21.295 11.6592 21.295C6.64546 21.295 2.61125 17.2507 2.61125 12.2369C2.61125 7.22312 6.64546 3.18893 11.6592 3.18893Z" fill="#5C5C5C"/>
</g>
<defs>
<clipPath id="clip0_1774_15857">
<rect width="26" height="26" fill="white" transform="translate(0 0.59082)"/>
</clipPath>
</defs>
</svg>
